<svg xmlns="http://www.w3.org/2000/svg" viewBox="0 0 1151.65 251.99"><defs><style>.cls-1{fill:#5600e3;}.cls-2{fill:#fff;}</style></defs><g id="Layer_2" data-name="Layer 2"><g id="Layer_1-2" data-name="Layer 1"><rect class="cls-1" width="251.99" height="251.99" rx="18.14"/><path class="cls-2" d="M207,76.2h0c-6.81-8.68-17.46-13.66-29.22-13.66a44.55,44.55,0,0,0-28.5,10.32c-7,5.65-13.15,13.5-18.23,23.34-.16.3-.31.61-.47.92A110,110,0,0,0,126,107.48c-5.95,15.64-8.2,31.51-8.2,41.68a23.89,23.89,0,1,1-43.51-13.63l5.55-8-8.78-4.14a30.93,30.93,0,0,1-6-3.68c-11.39-8.94-14.61-23.93-7.17-33.41,3.74-4.76,9.53-7.39,16.32-7.39,16,0,26.32,13.48,32.16,24.79A100.1,100.1,0,0,1,113.27,121a131.24,131.24,0,0,1,8.18-23.92c-.16-.31-.31-.62-.47-.92-5.08-9.84-11.22-17.69-18.23-23.34a44.55,44.55,0,0,0-28.5-10.32c-11.76,0-22.41,5-29.23,13.66-6.44,8.21-8.85,18.7-6.78,29.55A45.23,45.23,0,0,0,55,132.65c.54.42,1.08.83,1.64,1.22a40.29,40.29,0,1,0,77.59,15.29A104.86,104.86,0,0,1,138.72,121a100.1,100.1,0,0,1,6.86-17.31c5.84-11.31,16.17-24.79,32.16-24.79,6.79,0,12.58,2.62,16.32,7.39,7.44,9.48,4.22,24.47-7.17,33.41a30.93,30.93,0,0,1-5.95,3.68l-8.78,4.14,5.55,8a23.88,23.88,0,0,1-37.83,29.07,48.44,48.44,0,0,1-8.22,15,40.3,40.3,0,0,0,63.72-45.68c.55-.39,1.1-.8,1.64-1.22a45.23,45.23,0,0,0,16.73-26.9C215.82,94.9,213.41,84.41,207,76.2Z"/><path class="cls-2" d="M378.51,201.58H316.65V50.45h61.86c41.51.2,76,34.05,76,75.56C454.48,167.72,420,201.37,378.51,201.58ZM415.59,126c0-15.72-10.28-42.52-34.46-43.32H355.54v86.64h25.59C405.51,168.93,415.59,141.53,415.59,126Z"/><path class="cls-2" d="M507.06,159.86c0,8.67,9.27,13.1,18.54,13.1,5.84,0,14.71-2.42,19.14-7.66l22.77,20.76C555.22,198,540.71,202.58,523,202.58c-34.05,0-54.4-24.58-54.4-54,0-29.22,19.14-51.79,51.38-51.79,33,0,53,22.77,53,53.2v10.88ZM520,126.62c-8.06,0-13.1,4.43-13.1,13.09h27.81C534.67,131.86,528.42,126.62,520,126.62Z"/><path class="cls-2" d="M700.91,149.59c0,36.07-19.95,53-43.53,53-7.66,0-23-.6-33.45-14.71v13.71H585.65V44.4h38.28v67.1c10.48-14.3,25.79-14.71,33.45-14.71C681,96.79,700.91,115.74,700.91,149.59Zm-38.29,0c0-13.5-6.85-23.17-19.34-23.17s-19.35,9.67-19.35,23.17S630.78,173,643.28,173,662.62,163.09,662.62,149.59Z"/><path class="cls-2" d="M747.45,97.8v62.06c0,12.09,4,16.73,12.09,16.73,8.86,0,12.09-4.64,12.09-16.73V97.8h35.86V201.58H771.63v-9.27c-6,7.85-18.94,10.27-24.79,10.27-25.59,0-35.06-14.91-35.06-43.52l-.2-61.26Z"/><path class="cls-2" d="M887.69,196.54c-3.43,2.82-10.88,6-24.38,6-19.15,0-34.46-9.06-34.46-40.1V127.62H818.37V97.8h10.48V70h38.08V97.8h20.76v29.82H866.93v33.86c0,12.69,11.09,17.93,20.76,12.49Z"/><path class="cls-2" d="M901.19,201.58V97.8h37.88V201.58Z"/><path class="cls-2" d="M1011.61,79.06c-6.25,0-11.29,4.43-11.29,13.5V97.8h24v29.82h-24v74H962v-74H951.56V97.8H962V94c0-34.66,17.33-44.53,36.27-44.53,12.89,0,21.76,5.44,26,10.28v24C1022.29,81.68,1016.85,79.06,1011.61,79.06Z"/><path class="cls-2" d="M1120.41,174.17C1098.65,228,1090,239.05,1064,238.65c-7.85,0-21.15-3.83-27.8-12.69l5-22.77c6,3,13.91,6,19.35,6,5.64,0,13.5-2.42,4.63-25.59L1032.36,97.8H1070l22,64.68,22-64.68h37.68Z"/><path class="cls-2" d="M920.53,80.88c-10.07,0-18.34-7.26-18.34-16.73,0-9.07,8.27-16.52,18.34-16.52,10.48,0,18.34,7.45,18.34,16.52C938.87,73.62,931,80.88,920.53,80.88Z"/></g></g></svg>