<svg xmlns="http://www.w3.org/2000/svg" viewBox="0 0 251.99 251.99"><defs><style>.cls-1{fill:#5600e3;}.cls-2{fill:#fff;}</style></defs><g id="Layer_2" data-name="Layer 2"><g id="Layer_1-2" data-name="Layer 1"><rect class="cls-1" width="251.99" height="251.99" rx="18.14"/><path class="cls-2" d="M207,76.2h0c-6.81-8.68-17.46-13.66-29.22-13.66a44.55,44.55,0,0,0-28.5,10.32c-7,5.65-13.15,13.5-18.23,23.34-.16.3-.31.61-.47.92A110,110,0,0,0,126,107.48c-5.95,15.64-8.2,31.51-8.2,41.68a23.89,23.89,0,1,1-43.51-13.63l5.55-8-8.78-4.14a30.93,30.93,0,0,1-6-3.68c-11.39-8.94-14.61-23.93-7.17-33.41,3.74-4.76,9.53-7.39,16.32-7.39,16,0,26.32,13.48,32.16,24.79A100.1,100.1,0,0,1,113.27,121a131.24,131.24,0,0,1,8.18-23.92c-.16-.31-.31-.62-.47-.92-5.08-9.84-11.22-17.69-18.23-23.34a44.55,44.55,0,0,0-28.5-10.32c-11.76,0-22.41,5-29.23,13.66-6.44,8.21-8.85,18.7-6.78,29.55A45.23,45.23,0,0,0,55,132.65c.54.42,1.08.83,1.64,1.22a40.29,40.29,0,1,0,77.59,15.29A104.86,104.86,0,0,1,138.72,121a100.1,100.1,0,0,1,6.86-17.31c5.84-11.31,16.17-24.79,32.16-24.79,6.79,0,12.58,2.62,16.32,7.39,7.44,9.48,4.22,24.47-7.17,33.41a30.93,30.93,0,0,1-5.95,3.68l-8.78,4.14,5.55,8a23.88,23.88,0,0,1-37.83,29.07,48.44,48.44,0,0,1-8.22,15,40.3,40.3,0,0,0,63.72-45.68c.55-.39,1.1-.8,1.64-1.22a45.23,45.23,0,0,0,16.73-26.9C215.82,94.9,213.41,84.41,207,76.2Z"/></g></g></svg>